<svg xmlns="http://www.w3.org/2000/svg" xmlns:xlink="http://www.w3.org/1999/xlink" id="Layer_1" x="0" y="0" version="1.1" viewBox="-391 193 16 16" xml:space="preserve" style="enable-background:new -391 193 16 16"><style type="text/css">.st0{fill:#f6f6f6;fill-opacity:0}.st1{fill:#424242}</style><title>LogicPrefabBlueprint</title><path d="M-375,209h-16v-16h16V209z" class="st0"/><path d="M-388,209c-1.1,0-2-0.9-2-2v-12c0-1.1,0.9-2,2-2h8.1l3.9,3.6V207c0,1.1-0.9,2-2,2H-388z" class="st0"/><path d="M-380,193h-8.7c-0.6,0-1.1,0.5-1.1,1.1c0,0,0,0,0,0v13.7c0,0.6,0.5,1.1,1.1,1.1c0,0,0,0,0,0h11.4l1.1-1.1v-11.4	L-380,193z M-377,208h-12v-14h9v3h3V208z" class="st1"/><path d="M-379,203h-1l-2-3h2l1-1v-1h-1v1h-6v-2h5v-1h-5l-1,1v2l1,1h2l-2,3h-1l-1,1v2l1,1h2l1-1v-2l-1-1l0,0l2-3l2,3l0,0	l-1,1v2l1,1h2l1-1v-2L-379,203z M-385,204v2h-2v-2H-385z M-381,206v-2h2v2H-381z" class="st1"/></svg>