<svg xmlns="http://www.w3.org/2000/svg" xmlns:xlink="http://www.w3.org/1999/xlink" id="Layer_1" x="0" y="0" version="1.1" viewBox="-391 193 16 16" xml:space="preserve" style="enable-background:new -391 193 16 16"><style type="text/css">.st0{fill:#434343}.st1{display:none}.st2,.st3{fill:none;stroke-miterlimit:10}.st2{display:inline;stroke:#434343}.st3{stroke:#424242}.st4{fill:#424242}</style><g id="Layer_2"><title>ObjectBlueprintDOS</title><path d="M-379.9,193h-9c-0.6,0-1.1,0.4-1.1,1l0,0v14c0,0.6,0.4,1,1.1,1l0,0h11.9c0,0-0.1,0,0,0c0.5,0,1-0.5,1-1 c0-0.1,0,0,0,0v-11L-379.9,193z M-376.9,208H-389v-14h8.1v4h4V208z" class="st0"/></g><g id="Layer_3" class="st1"><path d="M-378.8,204.8c0.5-0.4,0.9-1.1,0.9-1.9c0-1.4-1.1-2.5-2.5-2.5c-0.8,0-1.6,0.4-2,1" class="st2"/></g><circle cx="-383" cy="203" r="3" class="st3"/><rect width="1" height="1" x="-384" y="198" class="st4"/><rect width="1" height="1" x="-380" y="199" class="st4"/><rect width="1" height="1" x="-387" y="199" class="st4"/><rect width="1" height="1" x="-380" y="206" class="st4"/><rect width="1" height="1" x="-387" y="206" class="st4"/><rect width="1" height="1" x="-379" y="202" class="st4"/><rect width="1" height="1" x="-388" y="203" class="st4"/><rect width="1" height="1" x="-383" y="207" class="st4"/></svg>
